<mxfile host="Electron" modified="2023-09-27T21:39:46.049Z" agent="Mozilla/5.0 (Windows NT 10.0; Win64; x64) AppleWebKit/537.36 (KHTML, like Gecko) draw.io/21.7.5 Chrome/114.0.5735.289 Electron/25.8.1 Safari/537.36" etag="KQbtVt2TBcuUCI6N8-Sr" version="21.7.5" type="device">
  <diagram name="Page-1" id="O0V4WyMjQOAa5weT-59h">
    <mxGraphModel dx="1548" dy="894" grid="1" gridSize="10" guides="1" tooltips="1" connect="1" arrows="1" fold="1" page="1" pageScale="1" pageWidth="827" pageHeight="1169" math="0" shadow="0">
      <root>
        <mxCell id="0" />
        <mxCell id="1" parent="0" />
        <mxCell id="xHpg4sOJQQNHNL1t8_fG-1" value="Round" style="swimlane;whiteSpace=wrap;html=1;" parent="1" vertex="1">
          <mxGeometry x="30" y="170" width="320" height="300" as="geometry" />
        </mxCell>
        <mxCell id="xHpg4sOJQQNHNL1t8_fG-3" value="Bank" style="whiteSpace=wrap;html=1;align=left;" parent="xHpg4sOJQQNHNL1t8_fG-1" vertex="1">
          <mxGeometry x="180" y="115" width="30" height="20" as="geometry" />
        </mxCell>
        <mxCell id="xHpg4sOJQQNHNL1t8_fG-7" value="Player_name" style="whiteSpace=wrap;html=1;align=left;" parent="xHpg4sOJQQNHNL1t8_fG-1" vertex="1">
          <mxGeometry x="63" y="165" width="80" height="20" as="geometry" />
        </mxCell>
        <mxCell id="xHpg4sOJQQNHNL1t8_fG-8" value="Player_score" style="whiteSpace=wrap;html=1;align=left;" parent="xHpg4sOJQQNHNL1t8_fG-1" vertex="1">
          <mxGeometry x="90" y="190" width="80" height="20" as="geometry" />
        </mxCell>
        <mxCell id="xHpg4sOJQQNHNL1t8_fG-9" value="K+ 10&amp;lt;3 2&amp;lt;&amp;gt;" style="rounded=0;whiteSpace=wrap;html=1;align=left;" parent="xHpg4sOJQQNHNL1t8_fG-1" vertex="1">
          <mxGeometry x="90" y="245" width="80" height="20" as="geometry" />
        </mxCell>
        <mxCell id="xHpg4sOJQQNHNL1t8_fG-11" value="" style="endArrow=none;dashed=1;html=1;rounded=0;" parent="xHpg4sOJQQNHNL1t8_fG-1" edge="1">
          <mxGeometry width="50" height="50" relative="1" as="geometry">
            <mxPoint x="20" y="280" as="sourcePoint" />
            <mxPoint x="280" y="280" as="targetPoint" />
          </mxGeometry>
        </mxCell>
        <mxCell id="xHpg4sOJQQNHNL1t8_fG-13" value="Your score:" style="text;html=1;strokeColor=none;fillColor=none;align=left;verticalAlign=middle;whiteSpace=wrap;rounded=0;" parent="xHpg4sOJQQNHNL1t8_fG-1" vertex="1">
          <mxGeometry x="20" y="185" width="70" height="30" as="geometry" />
        </mxCell>
        <mxCell id="xHpg4sOJQQNHNL1t8_fG-14" value="Your account:" style="text;html=1;strokeColor=none;fillColor=none;align=left;verticalAlign=middle;whiteSpace=wrap;rounded=0;" parent="xHpg4sOJQQNHNL1t8_fG-1" vertex="1">
          <mxGeometry x="20" y="210" width="80" height="30" as="geometry" />
        </mxCell>
        <mxCell id="xHpg4sOJQQNHNL1t8_fG-15" value="Player_account" style="whiteSpace=wrap;html=1;align=left;" parent="xHpg4sOJQQNHNL1t8_fG-1" vertex="1">
          <mxGeometry x="100" y="215" width="90" height="20" as="geometry" />
        </mxCell>
        <mxCell id="xHpg4sOJQQNHNL1t8_fG-16" value="Your cards:" style="text;html=1;strokeColor=none;fillColor=none;align=left;verticalAlign=middle;whiteSpace=wrap;rounded=0;" parent="xHpg4sOJQQNHNL1t8_fG-1" vertex="1">
          <mxGeometry x="20" y="240" width="70" height="30" as="geometry" />
        </mxCell>
        <mxCell id="xHpg4sOJQQNHNL1t8_fG-18" value="Dealer" style="text;html=1;strokeColor=none;fillColor=none;align=left;verticalAlign=middle;whiteSpace=wrap;rounded=0;" parent="xHpg4sOJQQNHNL1t8_fG-1" vertex="1">
          <mxGeometry x="20" y="50" width="60" height="30" as="geometry" />
        </mxCell>
        <mxCell id="xHpg4sOJQQNHNL1t8_fG-19" value="* * *" style="text;html=1;strokeColor=none;fillColor=none;align=left;verticalAlign=middle;whiteSpace=wrap;rounded=0;" parent="xHpg4sOJQQNHNL1t8_fG-1" vertex="1">
          <mxGeometry x="20" y="75" width="60" height="30" as="geometry" />
        </mxCell>
        <mxCell id="xHpg4sOJQQNHNL1t8_fG-20" value="Bank:" style="text;html=1;strokeColor=none;fillColor=none;align=center;verticalAlign=middle;whiteSpace=wrap;rounded=0;" parent="xHpg4sOJQQNHNL1t8_fG-1" vertex="1">
          <mxGeometry x="130" y="110" width="60" height="30" as="geometry" />
        </mxCell>
        <mxCell id="xHpg4sOJQQNHNL1t8_fG-67" value="Player" style="text;html=1;strokeColor=none;fillColor=none;align=left;verticalAlign=middle;whiteSpace=wrap;rounded=0;" parent="xHpg4sOJQQNHNL1t8_fG-1" vertex="1">
          <mxGeometry x="20" y="160" width="40" height="30" as="geometry" />
        </mxCell>
        <mxCell id="xHpg4sOJQQNHNL1t8_fG-10" value="" style="endArrow=none;dashed=1;html=1;rounded=0;" parent="xHpg4sOJQQNHNL1t8_fG-1" edge="1">
          <mxGeometry width="50" height="50" relative="1" as="geometry">
            <mxPoint x="20" y="50" as="sourcePoint" />
            <mxPoint x="280" y="50" as="targetPoint" />
          </mxGeometry>
        </mxCell>
        <mxCell id="xHpg4sOJQQNHNL1t8_fG-24" value="Win" style="swimlane;whiteSpace=wrap;html=1;" parent="1" vertex="1">
          <mxGeometry x="380" y="30" width="320" height="110" as="geometry" />
        </mxCell>
        <mxCell id="xHpg4sOJQQNHNL1t8_fG-26" value="" style="endArrow=none;dashed=1;html=1;rounded=0;" parent="xHpg4sOJQQNHNL1t8_fG-24" edge="1">
          <mxGeometry width="50" height="50" relative="1" as="geometry">
            <mxPoint x="20" y="40" as="sourcePoint" />
            <mxPoint x="280" y="40" as="targetPoint" />
          </mxGeometry>
        </mxCell>
        <mxCell id="xHpg4sOJQQNHNL1t8_fG-27" value="" style="endArrow=none;dashed=1;html=1;rounded=0;" parent="xHpg4sOJQQNHNL1t8_fG-24" edge="1">
          <mxGeometry width="50" height="50" relative="1" as="geometry">
            <mxPoint x="20" y="90" as="sourcePoint" />
            <mxPoint x="280" y="90" as="targetPoint" />
          </mxGeometry>
        </mxCell>
        <mxCell id="xHpg4sOJQQNHNL1t8_fG-33" value="Player_name" style="whiteSpace=wrap;html=1;align=left;" parent="xHpg4sOJQQNHNL1t8_fG-24" vertex="1">
          <mxGeometry x="20" y="50" width="80" height="20" as="geometry" />
        </mxCell>
        <mxCell id="xHpg4sOJQQNHNL1t8_fG-35" value="wins and gets" style="text;html=1;strokeColor=none;fillColor=none;align=center;verticalAlign=middle;whiteSpace=wrap;rounded=0;" parent="xHpg4sOJQQNHNL1t8_fG-24" vertex="1">
          <mxGeometry x="100" y="45" width="83" height="30" as="geometry" />
        </mxCell>
        <mxCell id="xHpg4sOJQQNHNL1t8_fG-36" value="Bank" style="whiteSpace=wrap;html=1;align=left;" parent="xHpg4sOJQQNHNL1t8_fG-24" vertex="1">
          <mxGeometry x="183" y="50" width="40" height="20" as="geometry" />
        </mxCell>
        <mxCell id="xHpg4sOJQQNHNL1t8_fG-37" value="$!" style="text;html=1;strokeColor=none;fillColor=none;align=center;verticalAlign=middle;whiteSpace=wrap;rounded=0;" parent="xHpg4sOJQQNHNL1t8_fG-24" vertex="1">
          <mxGeometry x="223" y="45" width="20" height="30" as="geometry" />
        </mxCell>
        <mxCell id="xHpg4sOJQQNHNL1t8_fG-38" value="Lose" style="swimlane;whiteSpace=wrap;html=1;" parent="1" vertex="1">
          <mxGeometry x="380" y="170" width="320" height="110" as="geometry" />
        </mxCell>
        <mxCell id="xHpg4sOJQQNHNL1t8_fG-39" value="" style="endArrow=none;dashed=1;html=1;rounded=0;" parent="xHpg4sOJQQNHNL1t8_fG-38" edge="1">
          <mxGeometry width="50" height="50" relative="1" as="geometry">
            <mxPoint x="20" y="40" as="sourcePoint" />
            <mxPoint x="280" y="40" as="targetPoint" />
          </mxGeometry>
        </mxCell>
        <mxCell id="xHpg4sOJQQNHNL1t8_fG-40" value="" style="endArrow=none;dashed=1;html=1;rounded=0;" parent="xHpg4sOJQQNHNL1t8_fG-38" edge="1">
          <mxGeometry width="50" height="50" relative="1" as="geometry">
            <mxPoint x="20" y="90" as="sourcePoint" />
            <mxPoint x="280" y="90" as="targetPoint" />
          </mxGeometry>
        </mxCell>
        <mxCell id="xHpg4sOJQQNHNL1t8_fG-41" value="Player_name" style="whiteSpace=wrap;html=1;align=left;" parent="xHpg4sOJQQNHNL1t8_fG-38" vertex="1">
          <mxGeometry x="20" y="50" width="80" height="20" as="geometry" />
        </mxCell>
        <mxCell id="xHpg4sOJQQNHNL1t8_fG-42" value="loses! Dealer gets" style="text;html=1;strokeColor=none;fillColor=none;align=center;verticalAlign=middle;whiteSpace=wrap;rounded=0;" parent="xHpg4sOJQQNHNL1t8_fG-38" vertex="1">
          <mxGeometry x="104" y="45" width="100" height="30" as="geometry" />
        </mxCell>
        <mxCell id="xHpg4sOJQQNHNL1t8_fG-43" value="Bank" style="whiteSpace=wrap;html=1;align=left;" parent="xHpg4sOJQQNHNL1t8_fG-38" vertex="1">
          <mxGeometry x="209" y="50" width="40" height="20" as="geometry" />
        </mxCell>
        <mxCell id="xHpg4sOJQQNHNL1t8_fG-44" value="$!" style="text;html=1;strokeColor=none;fillColor=none;align=center;verticalAlign=middle;whiteSpace=wrap;rounded=0;" parent="xHpg4sOJQQNHNL1t8_fG-38" vertex="1">
          <mxGeometry x="250" y="45" width="20" height="30" as="geometry" />
        </mxCell>
        <mxCell id="xHpg4sOJQQNHNL1t8_fG-45" value="Tie" style="swimlane;whiteSpace=wrap;html=1;" parent="1" vertex="1">
          <mxGeometry x="380" y="310" width="320" height="110" as="geometry" />
        </mxCell>
        <mxCell id="xHpg4sOJQQNHNL1t8_fG-46" value="" style="endArrow=none;dashed=1;html=1;rounded=0;" parent="xHpg4sOJQQNHNL1t8_fG-45" edge="1">
          <mxGeometry width="50" height="50" relative="1" as="geometry">
            <mxPoint x="20" y="40" as="sourcePoint" />
            <mxPoint x="280" y="40" as="targetPoint" />
          </mxGeometry>
        </mxCell>
        <mxCell id="xHpg4sOJQQNHNL1t8_fG-47" value="" style="endArrow=none;dashed=1;html=1;rounded=0;" parent="xHpg4sOJQQNHNL1t8_fG-45" edge="1">
          <mxGeometry width="50" height="50" relative="1" as="geometry">
            <mxPoint x="20" y="90" as="sourcePoint" />
            <mxPoint x="280" y="90" as="targetPoint" />
          </mxGeometry>
        </mxCell>
        <mxCell id="xHpg4sOJQQNHNL1t8_fG-49" value="It is a tie! Nobody wins!" style="text;html=1;strokeColor=none;fillColor=none;align=left;verticalAlign=middle;whiteSpace=wrap;rounded=0;" parent="xHpg4sOJQQNHNL1t8_fG-45" vertex="1">
          <mxGeometry x="20" y="50" width="140" height="30" as="geometry" />
        </mxCell>
        <mxCell id="xHpg4sOJQQNHNL1t8_fG-53" value="One more game?" style="swimlane;whiteSpace=wrap;html=1;" parent="1" vertex="1">
          <mxGeometry x="380" y="450" width="320" height="110" as="geometry" />
        </mxCell>
        <mxCell id="xHpg4sOJQQNHNL1t8_fG-54" value="" style="endArrow=none;dashed=1;html=1;rounded=0;" parent="xHpg4sOJQQNHNL1t8_fG-53" edge="1">
          <mxGeometry width="50" height="50" relative="1" as="geometry">
            <mxPoint x="20" y="40" as="sourcePoint" />
            <mxPoint x="280" y="40" as="targetPoint" />
          </mxGeometry>
        </mxCell>
        <mxCell id="xHpg4sOJQQNHNL1t8_fG-55" value="" style="endArrow=none;dashed=1;html=1;rounded=0;" parent="xHpg4sOJQQNHNL1t8_fG-53" edge="1">
          <mxGeometry width="50" height="50" relative="1" as="geometry">
            <mxPoint x="20" y="90" as="sourcePoint" />
            <mxPoint x="280" y="90" as="targetPoint" />
          </mxGeometry>
        </mxCell>
        <mxCell id="xHpg4sOJQQNHNL1t8_fG-56" value="Do you want to play one more game? Y/N" style="text;html=1;strokeColor=none;fillColor=none;align=left;verticalAlign=middle;whiteSpace=wrap;rounded=0;" parent="xHpg4sOJQQNHNL1t8_fG-53" vertex="1">
          <mxGeometry x="20" y="50" width="230" height="30" as="geometry" />
        </mxCell>
        <mxCell id="xHpg4sOJQQNHNL1t8_fG-57" value="Goodbye message" style="swimlane;whiteSpace=wrap;html=1;" parent="1" vertex="1">
          <mxGeometry x="380" y="585" width="320" height="110" as="geometry" />
        </mxCell>
        <mxCell id="xHpg4sOJQQNHNL1t8_fG-58" value="" style="endArrow=none;dashed=1;html=1;rounded=0;" parent="xHpg4sOJQQNHNL1t8_fG-57" edge="1">
          <mxGeometry width="50" height="50" relative="1" as="geometry">
            <mxPoint x="20" y="40" as="sourcePoint" />
            <mxPoint x="280" y="40" as="targetPoint" />
          </mxGeometry>
        </mxCell>
        <mxCell id="xHpg4sOJQQNHNL1t8_fG-59" value="" style="endArrow=none;dashed=1;html=1;rounded=0;" parent="xHpg4sOJQQNHNL1t8_fG-57" edge="1">
          <mxGeometry width="50" height="50" relative="1" as="geometry">
            <mxPoint x="20" y="90" as="sourcePoint" />
            <mxPoint x="280" y="90" as="targetPoint" />
          </mxGeometry>
        </mxCell>
        <mxCell id="xHpg4sOJQQNHNL1t8_fG-60" value="Goodbye,&amp;nbsp;" style="text;html=1;strokeColor=none;fillColor=none;align=left;verticalAlign=middle;whiteSpace=wrap;rounded=0;" parent="xHpg4sOJQQNHNL1t8_fG-57" vertex="1">
          <mxGeometry x="20" y="50" width="60" height="30" as="geometry" />
        </mxCell>
        <mxCell id="xHpg4sOJQQNHNL1t8_fG-61" value="Player_name" style="whiteSpace=wrap;html=1;align=left;" parent="xHpg4sOJQQNHNL1t8_fG-57" vertex="1">
          <mxGeometry x="80" y="55" width="80" height="20" as="geometry" />
        </mxCell>
        <mxCell id="xHpg4sOJQQNHNL1t8_fG-62" value=". Thank you for the game!" style="text;html=1;strokeColor=none;fillColor=none;align=left;verticalAlign=middle;whiteSpace=wrap;rounded=0;" parent="xHpg4sOJQQNHNL1t8_fG-57" vertex="1">
          <mxGeometry x="162" y="50" width="140" height="30" as="geometry" />
        </mxCell>
        <mxCell id="xHpg4sOJQQNHNL1t8_fG-63" value="Player actions" style="swimlane;whiteSpace=wrap;html=1;" parent="1" vertex="1">
          <mxGeometry x="30" y="500" width="320" height="140" as="geometry" />
        </mxCell>
        <mxCell id="xHpg4sOJQQNHNL1t8_fG-64" value="" style="endArrow=none;dashed=1;html=1;rounded=0;" parent="xHpg4sOJQQNHNL1t8_fG-63" edge="1">
          <mxGeometry width="50" height="50" relative="1" as="geometry">
            <mxPoint x="20" y="40" as="sourcePoint" />
            <mxPoint x="280" y="40" as="targetPoint" />
          </mxGeometry>
        </mxCell>
        <mxCell id="xHpg4sOJQQNHNL1t8_fG-65" value="" style="endArrow=none;dashed=1;html=1;rounded=0;" parent="xHpg4sOJQQNHNL1t8_fG-63" edge="1">
          <mxGeometry width="50" height="50" relative="1" as="geometry">
            <mxPoint x="20" y="124.5" as="sourcePoint" />
            <mxPoint x="280" y="124.5" as="targetPoint" />
          </mxGeometry>
        </mxCell>
        <mxCell id="xHpg4sOJQQNHNL1t8_fG-66" value="Please, choose your action (enter the number):&lt;br&gt;1 - Skip turn,&lt;br&gt;2 - Request a card,&lt;br&gt;3 - Show your cards (game will end)." style="text;html=1;strokeColor=none;fillColor=none;align=left;verticalAlign=top;whiteSpace=wrap;rounded=0;" parent="xHpg4sOJQQNHNL1t8_fG-63" vertex="1">
          <mxGeometry x="20" y="50" width="290" height="70" as="geometry" />
        </mxCell>
        <mxCell id="xHpg4sOJQQNHNL1t8_fG-68" value="Hello message" style="swimlane;whiteSpace=wrap;html=1;" parent="1" vertex="1">
          <mxGeometry x="30" y="30" width="320" height="120" as="geometry" />
        </mxCell>
        <mxCell id="xHpg4sOJQQNHNL1t8_fG-69" value="&lt;div&gt;&lt;span style=&quot;background-color: initial;&quot;&gt;##############&lt;/span&gt;&lt;/div&gt;&lt;div&gt;&lt;span style=&quot;background-color: initial;&quot;&gt;BLACKJACK GAME&lt;/span&gt;&lt;br&gt;&lt;/div&gt;&lt;div&gt;##############&lt;/div&gt;&lt;div&gt;&lt;br&gt;&lt;/div&gt;&lt;div&gt;Please, enter your name:&lt;/div&gt;" style="text;html=1;strokeColor=none;fillColor=none;align=left;verticalAlign=top;whiteSpace=wrap;rounded=0;" parent="xHpg4sOJQQNHNL1t8_fG-68" vertex="1">
          <mxGeometry x="10" y="27.5" width="170" height="65" as="geometry" />
        </mxCell>
      </root>
    </mxGraphModel>
  </diagram>
</mxfile>
